<?xml version="1.0" encoding="UTF-8"?>
<svg version="1.1" xmlns="http://www.w3.org/2000/svg" width="200" height="200">
<path d="M0 0 C3.65512639 1.92346014 5.61237359 3.10881393 7.28076172 6.94458008 C7.53615723 8.10368896 7.79155273 9.26279785 8.0546875 10.45703125 C8.20582001 11.10420609 8.35695251 11.75138092 8.51266479 12.41816711 C8.84502513 13.84248664 9.16798253 15.26902453 9.48278809 16.69732666 C10.21755508 19.96857452 11.03855042 23.21664043 11.85430908 26.46847534 C12.51211593 29.09137799 13.16169527 31.71618394 13.80859375 34.34179688 C14.02499512 35.21956787 14.24139648 36.09733887 14.46435547 37.00170898 C14.90955745 38.81163766 15.35354278 40.62186598 15.79638672 42.43237305 C16.44593479 45.08489204 17.10139297 47.73589316 17.7578125 50.38671875 C17.9536795 51.19396896 18.14954651 52.00121918 18.35134888 52.83293152 C19.24931449 56.44173077 20.09599867 59.76341399 22 63 C22.56396484 62.98952637 23.12792969 62.97905273 23.70898438 62.96826172 C26.30594281 62.92625522 28.90282939 62.90053398 31.5 62.875 C32.386875 62.85824219 33.27375 62.84148437 34.1875 62.82421875 C40.68191258 62.77646572 46.84222142 63.02638838 52.5 66.5625 C54.45166904 69.7339622 54.68140757 72.12060012 54.5234375 75.80859375 C53.57967022 79.75973885 51.39548081 80.91047335 48 83 C42.71366247 84.81221084 36.83438751 84.22450983 31.3203125 84.24023438 C29.27041473 84.2499037 27.2215363 84.2809364 25.171875 84.3125 C11.96561391 84.36449315 11.96561391 84.36449315 6 81 C1.61901013 76.25147742 0.59873103 70.51639159 -0.75 64.375 C-0.97042969 63.43398437 -1.19085938 62.49296875 -1.41796875 61.5234375 C-2.33126903 57.52987602 -3 54.12341257 -3 50 C-3.66 50 -4.32 50 -5 50 C-5.10699219 51.21816406 -5.21398437 52.43632813 -5.32421875 53.69140625 C-6.01395944 59.87732933 -7.4197871 65.87802226 -8.8125 71.9375 C-9.35999765 74.33449328 -9.9068709 76.73162927 -10.453125 79.12890625 C-10.85241211 80.87905029 -10.85241211 80.87905029 -11.25976562 82.66455078 C-11.91863622 85.63337997 -12.5295349 88.60476128 -13.109375 91.58984375 C-13.27332764 92.40912354 -13.43728027 93.22840332 -13.60620117 94.07250977 C-13.90014526 95.55575573 -14.18007844 97.04188196 -14.44262695 98.53100586 C-15.4300047 103.38814258 -17.1505528 105.90886496 -21 109 C-24.91297324 110.11799235 -26.99291285 110.43487854 -30.75 108.8125 C-35.57301095 104.92729673 -36.92873666 100.58855486 -38.48046875 94.734375 C-38.80704216 93.54427826 -38.80704216 93.54427826 -39.14021301 92.33013916 C-39.83093477 89.80560034 -40.50935907 87.277944 -41.1875 84.75 C-41.65479055 83.03363387 -42.12288057 81.31748518 -42.59179688 79.6015625 C-43.73714297 75.40350471 -44.87147467 71.20260933 -46 67 C-46.20505157 67.55148712 -46.41010315 68.10297424 -46.62136841 68.6711731 C-46.89085297 69.39344086 -47.16033752 70.11570862 -47.43798828 70.85986328 C-47.70491486 71.5763504 -47.97184143 72.29283752 -48.24685669 73.03103638 C-51.32187969 81.07015502 -51.32187969 81.07015502 -55.12329102 83.17651367 C-58.81554434 84.23345761 -62.34432634 84.30545347 -66.15234375 84.30078125 C-67.31897301 84.30720894 -67.31897301 84.30720894 -68.50917053 84.31376648 C-70.14892608 84.3194918 -71.78870702 84.32002332 -73.4284668 84.31567383 C-75.92606268 84.31251447 -78.42247226 84.33599204 -80.91992188 84.36132812 C-82.51822768 84.3636015 -84.11653665 84.36430443 -85.71484375 84.36328125 C-86.82604836 84.37709587 -86.82604836 84.37709587 -87.95970154 84.39118958 C-92.71167423 84.34915476 -95.98790646 83.56189398 -100 81 C-102.46406448 77.30390328 -102.67864807 74.28972609 -102 70 C-99.60428062 65.91840402 -97.43020505 64.42822864 -93 63 C-90.13745117 62.77294922 -90.13745117 62.77294922 -87.04296875 62.8046875 C-85.93115234 62.81113281 -84.81933594 62.81757812 -83.67382812 62.82421875 C-82.52333984 62.84097656 -81.37285156 62.85773438 -80.1875 62.875 C-79.01767578 62.88402344 -77.84785156 62.89304688 -76.64257812 62.90234375 C-73.76150947 62.92586268 -70.88086011 62.95873148 -68 63 C-65.53839766 55.49041129 -63.2274033 47.97689963 -61.25 40.32421875 C-60.949729 39.16776855 -60.64945801 38.01131836 -60.34008789 36.81982422 C-59.74510479 34.5078071 -59.16069625 32.19303915 -58.58764648 29.87548828 C-55.96933134 19.72581408 -55.96933134 19.72581408 -52 16 C-48.85088521 14.42544261 -46.47991184 14.65200882 -43 15 C-37.42685924 18.65467884 -35.80999914 21.91429949 -34.2265625 28.2578125 C-34.01309174 29.04268036 -33.79962097 29.82754822 -33.5796814 30.63619995 C-32.90779879 33.12755417 -32.26657757 35.62569142 -31.625 38.125 C-31.17246867 39.81170768 -30.71805971 41.49791278 -30.26171875 43.18359375 C-27 55.37955259 -27 55.37955259 -27 59 C-26.34 59 -25.68 59 -25 59 C-24.82561401 57.09202637 -24.82561401 57.09202637 -24.64770508 55.14550781 C-24.05845314 49.87252932 -22.91044235 44.81649027 -21.63671875 39.671875 C-21.4034639 38.71984192 -21.17020905 37.76780884 -20.92988586 36.78692627 C-20.43790018 34.78947238 -19.94275214 32.79279497 -19.44458008 30.796875 C-18.6869967 27.74797447 -17.94966256 24.69461209 -17.21289062 21.640625 C-16.73039869 19.6924028 -16.24671573 17.7444751 -15.76171875 15.796875 C-15.54488937 14.88846863 -15.32806 13.98006226 -15.10466003 13.04412842 C-13.87064987 8.19525847 -12.70338335 4.58446943 -9 1 C-5.64870516 -0.11709828 -3.51689744 -0.34479387 0 0 Z " fill="#3483C1" transform="translate(123,42)"/>
<path d="M0 0 C3.64517069 1.93241115 5.61376789 3.11201953 7.28076172 6.94458008 C7.53615723 8.10368896 7.79155273 9.26279785 8.0546875 10.45703125 C8.20582001 11.10420609 8.35695251 11.75138092 8.51266479 12.41816711 C8.84502513 13.84248664 9.16798253 15.26902453 9.48278809 16.69732666 C10.21755508 19.96857452 11.03855042 23.21664043 11.85430908 26.46847534 C12.51211593 29.09137799 13.16169527 31.71618394 13.80859375 34.34179688 C14.02499512 35.21956787 14.24139648 36.09733887 14.46435547 37.00170898 C14.90955745 38.81163766 15.35354278 40.62186598 15.79638672 42.43237305 C16.44593479 45.08489204 17.10139297 47.73589316 17.7578125 50.38671875 C17.9536795 51.19396896 18.14954651 52.00121918 18.35134888 52.83293152 C19.24931449 56.44173077 20.09599867 59.76341399 22 63 C22.56396484 62.98952637 23.12792969 62.97905273 23.70898438 62.96826172 C26.30594281 62.92625522 28.90282939 62.90053398 31.5 62.875 C32.386875 62.85824219 33.27375 62.84148437 34.1875 62.82421875 C40.68191258 62.77646572 46.84222142 63.02638838 52.5 66.5625 C54.45166904 69.7339622 54.68140757 72.12060012 54.5234375 75.80859375 C53.57967022 79.75973885 51.39548081 80.91047335 48 83 C42.71366247 84.81221084 36.83438751 84.22450983 31.3203125 84.24023438 C29.27041473 84.2499037 27.2215363 84.2809364 25.171875 84.3125 C11.96561391 84.36449315 11.96561391 84.36449315 6 81 C1.61901013 76.25147742 0.59873103 70.51639159 -0.75 64.375 C-0.97042969 63.43398437 -1.19085938 62.49296875 -1.41796875 61.5234375 C-2.33126903 57.52987602 -3 54.12341257 -3 50 C-3.66 50 -4.32 50 -5 50 C-5.10570313 51.21042969 -5.21140625 52.42085937 -5.3203125 53.66796875 C-6.02434048 59.9856935 -7.46252994 66.12174706 -8.875 72.3125 C-9.25978516 74.03243164 -9.25978516 74.03243164 -9.65234375 75.78710938 C-11.3264496 83.21963458 -13.11840356 90.61738235 -15 98 C-15.99 97.67 -16.98 97.34 -18 97 C-19.07495117 94.25952148 -19.07495117 94.25952148 -20.04296875 90.62109375 C-20.21629227 89.97560074 -20.38961578 89.33010773 -20.56819153 88.66505432 C-20.93306888 87.29387583 -21.29159434 85.9209939 -21.64428711 84.54663086 C-22.18024628 82.46566399 -22.73971834 80.39214745 -23.30273438 78.31835938 C-23.65508816 76.98215034 -24.00604256 75.64557136 -24.35546875 74.30859375 C-24.82956177 72.49572876 -24.82956177 72.49572876 -25.31323242 70.64624023 C-26.87220022 62.36924625 -25.45533836 55.55772177 -23.48046875 47.4921875 C-23.09161247 45.86580856 -23.09161247 45.86580856 -22.69490051 44.20657349 C-22.14695141 41.9245769 -21.59451282 39.64365417 -21.0378418 37.36376953 C-20.18923011 33.88209829 -19.35827879 30.39654713 -18.52929688 26.91015625 C-17.99323619 24.68724684 -17.45616108 22.46458177 -16.91796875 20.2421875 C-16.67096725 19.20456268 -16.42396576 18.16693787 -16.16947937 17.09786987 C-13.12165788 4.72026315 -13.12165788 4.72026315 -8.6875 1.125 C-5.43064391 -0.23833511 -3.50329831 -0.50047119 0 0 Z " fill="#A0D1F8" transform="translate(123,42)"/>
<path d="M0 0 C0.66 0 1.32 0 2 0 C2.24234375 1.11375 2.4846875 2.2275 2.734375 3.375 C4.98130829 13.63087158 7.39497322 23.82931035 10 34 C10.66 34 11.32 34 12 34 C12.26216309 35.05501709 12.52432617 36.11003418 12.79443359 37.19702148 C13.76649649 41.09967002 14.74926921 44.99955399 15.73535156 48.89868164 C16.16114662 50.58869797 16.58400828 52.27945611 17.00390625 53.97094727 C17.60693461 56.3979942 18.22035987 58.8222037 18.8359375 61.24609375 C19.02247894 62.00651474 19.20902039 62.76693573 19.4012146 63.55039978 C19.87234967 65.38393138 20.42856074 67.19521094 21 69 C21.66 69.33 22.32 69.66 23 70 C21.79620853 77.22274882 21.79620853 77.22274882 18.375 80.5625 C14.79134871 82.08886999 12.80394589 82.30057569 9.02734375 81.9453125 C5.33099377 80.22177359 2.78802589 76.85162521 1.21162415 73.14755249 C0.57690447 71.10340224 0.04247573 69.05784403 -0.45703125 66.9765625 C-0.64972092 66.23038666 -0.84241058 65.48421082 -1.04093933 64.71542358 C-1.64668145 62.35551425 -2.22987114 59.9907094 -2.8125 57.625 C-3.22182387 56.01394529 -3.63261716 54.40326317 -4.04492188 52.79296875 C-5.0469852 48.86608167 -6.02887787 44.93464782 -7 41 C-6.34 41 -5.68 41 -5 41 C-6.15173355 38.53199953 -7.04783565 36.95216435 -9 35 C-8.47045065 31.91521553 -7.8050149 29.01748358 -7 26 C-6.72639648 24.95312012 -6.45279297 23.90624023 -6.17089844 22.82763672 C-5.25398407 19.36002421 -4.3172872 15.89829872 -3.375 12.4375 C-2.88773437 10.63829102 -2.88773437 10.63829102 -2.390625 8.80273438 C-1.59555603 5.86799448 -0.79863915 2.93376995 0 0 Z " fill="#44A4F3" transform="translate(85,70)"/>
<path d="M0 0 C0.66 0 1.32 0 2 0 C1.05630515 7.54955881 -0.87301336 14.70747437 -3 22 C-9.38278554 22.93037213 -15.47239137 23.05983825 -21.90820312 22.87304688 C-26.04026785 22.80970594 -29.37542626 22.90010355 -33 25 C-33.33 25.99 -33.66 26.98 -34 28 C-34.99 28 -35.98 28 -37 28 C-36.67 30.64 -36.34 33.28 -36 36 C-32.10199488 37.26525826 -28.18101292 37.16178532 -24.12890625 37.16796875 C-22.98989113 37.17296135 -22.98989113 37.17296135 -21.8278656 37.17805481 C-20.22501225 37.18310749 -18.62214842 37.18546365 -17.01928711 37.18530273 C-14.57452995 37.18748924 -12.13022428 37.2056622 -9.68554688 37.22460938 C-8.12500154 37.22754369 -6.56445406 37.22952823 -5.00390625 37.23046875 C-4.27667862 37.23765427 -3.54945099 37.24483978 -2.80018616 37.25224304 C1.23583318 37.23417983 4.41023645 36.9000239 8 35 C9.80348078 32.98682781 9.80348078 32.98682781 11 31 C10.5047783 34.66464055 9.9791794 36.70832354 7 39 C3.31460199 40.228466 -0.11724527 40.18145784 -3.95703125 40.203125 C-4.73761398 40.20882507 -5.51819672 40.21452515 -6.32243347 40.22039795 C-7.97413786 40.2298395 -9.62586102 40.23637858 -11.27758789 40.24023438 C-13.79281887 40.24992418 -16.30722691 40.28094801 -18.82226562 40.3125 C-20.42968267 40.31903214 -22.03710553 40.32428178 -23.64453125 40.328125 C-24.39160843 40.3404718 -25.13868561 40.3528186 -25.90840149 40.36553955 C-30.68702297 40.34535816 -33.96780656 39.58247977 -38 37 C-40.46406448 33.30390328 -40.67864807 30.28972609 -40 26 C-37.60428062 21.91840402 -35.43020505 20.42822864 -31 19 C-28.13745117 18.77294922 -28.13745117 18.77294922 -25.04296875 18.8046875 C-23.93115234 18.81113281 -22.81933594 18.81757812 -21.67382812 18.82421875 C-19.9480957 18.84935547 -19.9480957 18.84935547 -18.1875 18.875 C-17.01767578 18.88402344 -15.84785156 18.89304687 -14.64257812 18.90234375 C-11.76163084 18.92586169 -8.88078911 18.96173121 -6 19 C-4.02 12.73 -2.04 6.46 0 0 Z " fill="#4881AB" transform="translate(61,86)"/>
<path d="M0 0 C3.64714858 1.93286086 5.61430529 3.10953804 7.27636719 6.94677734 C7.53063477 8.1064502 7.78490234 9.26612305 8.046875 10.4609375 C8.36088026 11.80967466 8.67535978 13.15830147 8.99023438 14.50683594 C9.15064209 15.23076538 9.3110498 15.95469482 9.47631836 16.70056152 C10.21987546 19.96545314 11.06517782 23.20168194 11.90588379 26.44268799 C12.81140029 29.94003378 13.69240991 33.44339206 14.57421875 36.94677734 C15.0294158 38.75079167 15.48714948 40.55416761 15.94726562 42.35693359 C16.62157801 44.99957332 17.28819216 47.64404928 17.953125 50.2890625 C18.15931458 51.09115143 18.36550415 51.89324036 18.57794189 52.71963501 C19.53516447 56.56309106 20.2614536 60.00335244 20 64 C19.34 64 18.68 64 18 64 C15.8700714 55.59304653 13.79265313 47.1751896 11.77539062 38.74047852 C11.25788025 36.57772182 10.73834399 34.4154489 10.21679688 32.25366211 C9.06815355 27.49079076 7.93105687 22.72789765 6.8671875 17.9453125 C6.69703125 17.20474609 6.526875 16.46417969 6.3515625 15.70117188 C5.90929281 13.7743986 5.48138149 11.84434486 5.0546875 9.9140625 C3.86262778 6.62044565 3.11790428 5.54793481 0 4 C-2.58881802 3.63965477 -2.58881802 3.63965477 -5.25 3.8125 C-6.14203125 3.83957031 -7.0340625 3.86664063 -7.953125 3.89453125 C-8.96632813 3.94673828 -8.96632813 3.94673828 -10 4 C-12.38543439 12.99684137 -14.48388447 21.95566903 -15.96020508 31.15014648 C-16.6805464 35.55294538 -17.71873127 39.72910425 -19 44 C-19.43301287 45.53943309 -19.86249291 47.07986282 -20.2890625 48.62109375 C-20.50820312 49.41064453 -20.72734375 50.20019531 -20.953125 51.01367188 C-21.17484375 51.81353516 -21.3965625 52.61339844 -21.625 53.4375 C-21.96917969 54.67790039 -21.96917969 54.67790039 -22.3203125 55.94335938 C-22.88044595 57.96217367 -23.44025643 59.98107757 -24 62 C-26 59 -26 59 -25.80513 56.78141785 C-25.59655869 55.91793228 -25.38798737 55.05444672 -25.1730957 54.16479492 C-24.94237869 53.18335007 -24.71166168 52.20190521 -24.47395325 51.1907196 C-24.21055649 50.13133682 -23.94715973 49.07195404 -23.67578125 47.98046875 C-23.41371384 46.88914139 -23.15164642 45.79781403 -22.88163757 44.67341614 C-22.32344881 42.36111452 -21.75896245 40.05032555 -21.1887207 37.7409668 C-20.31943216 34.21561299 -19.47162005 30.68562115 -18.62695312 27.15429688 C-18.08200229 24.90854485 -17.53581803 22.6630917 -16.98828125 20.41796875 C-16.73500565 19.36465866 -16.48173004 18.31134857 -16.22077942 17.22612 C-13.1071297 4.70848354 -13.1071297 4.70848354 -8.6875 1.125 C-5.43064391 -0.23833511 -3.50329831 -0.50047119 0 0 Z " fill="#A8C3DB" transform="translate(123,42)"/>
<path d="M0 0 C1.34830924 5.67054881 2.69477892 11.33818006 3.796875 17.0625 C3.92537842 17.72950928 4.05388184 18.39651855 4.1862793 19.08374023 C4.54742608 20.98321762 4.9008358 22.8841611 5.25390625 24.78515625 C6.49027176 30.2394557 6.49027176 30.2394557 10.6875 33.7265625 C16.18873173 35.82511725 22.15796849 35.44572617 27.9609375 35.39111328 C29.9954738 35.37503577 32.02802432 35.3910094 34.0625 35.41015625 C45.00140261 35.53310874 45.00140261 35.53310874 54 30 C54.40047444 27.67724823 54.7397104 25.34260643 55 23 C55.33 23 55.66 23 56 23 C56.90891089 30.72574257 56.90891089 30.72574257 54.8046875 33.67578125 C48.39090847 39.13877394 41.32326449 38.21741227 33.3203125 38.24023438 C31.27041473 38.2499037 29.2215363 38.2809364 27.171875 38.3125 C13.96561391 38.36449315 13.96561391 38.36449315 8 35 C3.61901013 30.25147742 2.59873103 24.51639159 1.25 18.375 C1.02957031 17.43398437 0.80914062 16.49296875 0.58203125 15.5234375 C-0.33126903 11.52987602 -1 8.12341257 -1 4 C-1.66 4 -2.32 4 -3 4 C-3.185625 5.9490625 -3.185625 5.9490625 -3.375 7.9375 C-3.89863328 12.71849952 -4.86313835 17.33114101 -6 22 C-6.66 21.67 -7.32 21.34 -8 21 C-8.42541044 13.98072768 -5.64375506 7.38907473 -3 1 C-1 0 -1 0 0 0 Z " fill="#A5C2DB" transform="translate(121,88)"/>
<path d="M0 0 C0.66 0 1.32 0 2 0 C2.25692627 0.98395752 2.51385254 1.96791504 2.77856445 2.98168945 C3.73549408 6.6353514 4.70591059 10.28531749 5.68041992 13.93432617 C6.10012004 15.51342962 6.51616767 17.09350858 6.9284668 18.67456055 C7.52212744 20.94847371 8.12888356 23.21854206 8.73828125 25.48828125 C8.91966141 26.19463211 9.10104156 26.90098297 9.28791809 27.6287384 C10.27145475 31.2383419 11.13357495 33.56212224 14 36 C14 36.66 14 37.32 14 38 C19.44532703 37.87448218 19.44532703 37.87448218 23.875 35.25 C25.06336536 32.87326928 26.09742712 30.49943259 27 28 C27.66 28 28.32 28 29 28 C27.79620853 35.22274882 27.79620853 35.22274882 24.375 38.5625 C20.79134871 40.08886999 18.80394589 40.30057569 15.02734375 39.9453125 C10.41812418 37.79611956 8.53418752 34.46444001 6.8527832 29.85498047 C5.91076989 26.70875297 5.0260368 23.55681332 4.20483398 20.37695312 C3.68595316 18.36901412 3.14489029 16.36810157 2.59960938 14.3671875 C0 4.62236607 0 4.62236607 0 0 Z " fill="#5897CE" transform="translate(79,112)"/>
<path d="M0 0 C2.71226315 1.38877369 3.89027105 2.63298703 6 5 C6.375 8.3125 6.375 8.3125 6 11 C4 8 4 8 4 5 C2.56342755 4.66269158 1.12569907 4.33030409 -0.3125 4 C-1.11300781 3.814375 -1.91351563 3.62875 -2.73828125 3.4375 C-5.10695938 2.90504177 -5.10695938 2.90504177 -8 3 C-9.54753747 5.9134075 -10.66269331 8.78327253 -11.625 11.9375 C-11.88539062 12.77152344 -12.14578125 13.60554688 -12.4140625 14.46484375 C-13.01494131 17.06464605 -13.10462243 19.34163909 -13 22 C-13.66 22 -14.32 22 -15 22 C-15.33 23.65 -15.66 25.3 -16 27 C-16.66 27 -17.32 27 -18 27 C-17.40582187 24.12260944 -16.8000641 21.24848251 -16.1875 18.375 C-16.02185547 17.56675781 -15.85621094 16.75851563 -15.68554688 15.92578125 C-14.50110151 10.42816692 -13.19060675 5.34707866 -9.25 1.125 C-5.91027806 -0.54486097 -3.6879065 -0.50867676 0 0 Z " fill="#5483A6" transform="translate(80,57)"/>
<path d="M0 0 C0.75 1.75 0.75 1.75 1 4 C-1.21867135 6.77333918 -2.60620325 7.86873442 -6 9 C-8.6845772 9.10887625 -11.34241451 9.16403438 -14.02734375 9.16796875 C-14.81266983 9.17129715 -15.59799591 9.17462555 -16.40711975 9.17805481 C-18.06722427 9.18311463 -19.72733895 9.18546343 -21.38745117 9.18530273 C-23.92448713 9.18748879 -26.46108787 9.20565296 -28.99804688 9.22460938 C-30.61197768 9.22754359 -32.22591055 9.2295282 -33.83984375 9.23046875 C-34.5972435 9.23765427 -35.35464325 9.24483978 -36.13499451 9.25224304 C-39.91010443 9.23590196 -42.79843562 9.11776428 -46 7 C-42.09394731 5.70936481 -38.18798181 5.90900591 -34.12890625 5.97265625 C-32.56966367 5.98530175 -31.01041876 5.99766276 -29.45117188 6.00976562 C-27.00440135 6.03457476 -24.55775312 6.06256477 -22.11108398 6.09594727 C-19.74201701 6.12623126 -17.37310555 6.14394745 -15.00390625 6.16015625 C-14.27667862 6.17361588 -13.54945099 6.1870755 -12.80018616 6.20094299 C-8.7597869 6.22080153 -5.5842804 5.93316589 -2 4 C-0.65589738 1.98264795 -0.65589738 1.98264795 0 0 Z " fill="#48769E" transform="translate(71,117)"/>
<path d="M0 0 C2.23566208 3.35349312 3.11856481 6.56693589 4.12890625 10.40625 C4.32346909 11.12735962 4.51803192 11.84846924 4.7184906 12.59143066 C5.33836478 14.89292661 5.95064814 17.19635971 6.5625 19.5 C7.17951933 21.80318628 7.79807329 24.1059544 8.41722107 26.40856934 C8.80167532 27.8405162 9.18459535 29.27287606 9.56581116 30.70568848 C10.31139134 33.4997495 11.08521031 36.25563093 12 39 C11.01 39 10.02 39 9 39 C0 8.49344978 0 8.49344978 0 0 Z " fill="#5A92C2" transform="translate(86,65)"/>
<path d="M0 0 C0.66 0 1.32 0 2 0 C1.22690394 6.18476847 -0.02360078 12.07080235 -2 18 C-2.66 18 -3.32 18 -4 18 C-4 18.66 -4 19.32 -4 20 C-4.66 19.67 -5.32 19.34 -6 19 C-4.02 12.73 -2.04 6.46 0 0 Z " fill="#4A7DA6" transform="translate(61,86)"/>
<path d="M0 0 C0.66 0 1.32 0 2 0 C0.79620853 7.22274882 0.79620853 7.22274882 -2.625 10.5625 C-7.09501173 12.46639389 -9.30770833 12.11342514 -14 11 C-14.33 10.34 -14.66 9.68 -15 9 C-14.31292969 9.04640625 -13.62585938 9.0928125 -12.91796875 9.140625 C-12.01691406 9.17671875 -11.11585937 9.2128125 -10.1875 9.25 C-8.84751953 9.31960937 -8.84751953 9.31960937 -7.48046875 9.390625 C-4.86959701 9.23763762 -4.86959701 9.23763762 -3.25 7.15625 C-1.90532857 4.83669178 -0.90993191 2.51981145 0 0 Z " fill="#5A93BF" transform="translate(106,140)"/>
<path d="M0 0 C2.43845066 3.65767599 3.11197519 7.07029579 4.12109375 11.30859375 C5.0210948 14.06459696 6.13626579 15.80401234 8 18 C6.1875 17.875 6.1875 17.875 4 17 C0.48870293 11.14783822 -0.12975552 6.74728717 0 0 Z " fill="#5390C6" transform="translate(85,131)"/>
<path d="M0 0 C1.63129887 4.06285757 0.29968777 7.20102184 -0.9375 11.25 C-1.31777344 12.51328125 -1.69804688 13.7765625 -2.08984375 15.078125 C-2.39019531 16.04234375 -2.69054687 17.0065625 -3 18 C-5 15 -5 15 -4.5390625 11.86328125 C-4.23742187 10.69152344 -3.93578125 9.51976563 -3.625 8.3125 C-3.32851562 7.13300781 -3.03203125 5.95351562 -2.7265625 4.73828125 C-2.48679687 3.83464844 -2.24703125 2.93101563 -2 2 C-1.34 2 -0.68 2 0 2 C0 1.34 0 0.68 0 0 Z " fill="#9FC2DC" transform="translate(102,86)"/>
<path d="M0 0 C2.5 1.625 2.5 1.625 4 4 C4.25 7.25 4.25 7.25 4 10 C2 7 2 7 2 4 C1.38511719 3.86722656 0.77023438 3.73445313 0.13671875 3.59765625 C-1.07564453 3.33275391 -1.07564453 3.33275391 -2.3125 3.0625 C-3.11300781 2.88847656 -3.91351563 2.71445312 -4.73828125 2.53515625 C-7 2 -7 2 -10 1 C-6.79679603 -0.60160199 -3.47573478 -0.48770192 0 0 Z " fill="#4073A0" transform="translate(82,58)"/>
<path d="M0 0 C5.37992836 0.33990833 9.53273547 0.68557793 14 4 C13.67 4.66 13.34 5.32 13 6 C11.7315625 5.5359375 11.7315625 5.5359375 10.4375 5.0625 C6.9502146 3.98461179 3.61822465 3.43418696 0 3 C0 2.01 0 1.02 0 0 Z " fill="#A1BDD6" transform="translate(162,105)"/>
<path d="M0 0 C0.66 0 1.32 0 2 0 C2 2.97 2 5.94 2 9 C1.34 9 0.68 9 0 9 C-0.33 10.65 -0.66 12.3 -1 14 C-1.66 14 -2.32 14 -3 14 C-2.01 9.38 -1.02 4.76 0 0 Z " fill="#4A7DAA" transform="translate(65,70)"/>
<path d="M0 0 C0.66 0 1.32 0 2 0 C2.38897161 1.62171239 2.76078298 3.24754925 3.125 4.875 C3.33382812 5.77992187 3.54265625 6.68484375 3.7578125 7.6171875 C3.83773437 8.40351562 3.91765625 9.18984375 4 10 C3.34 10.66 2.68 11.32 2 12 C0.70756464 7.8803623 -0.26252625 4.33168317 0 0 Z " fill="#8ECDFC" transform="translate(97,104)"/>
<path d="M0 0 C7.65217391 1.2173913 7.65217391 1.2173913 10 2 C10.33 2.66 10.66 3.32 11 4 C10.34 4.66 9.68 5.32 9 6 C8.46375 5.525625 7.9275 5.05125 7.375 4.5625 C4.57157164 2.71813924 2.30379742 2.37543153 -1 2 C-0.67 1.34 -0.34 0.68 0 0 Z " fill="#A9CAE9" transform="translate(118,43)"/>
<path d="M0 0 C0.66 0 1.32 0 2 0 C2.99 3.3 3.98 6.6 5 10 C4.01 10 3.02 10 2 10 C0.68373308 6.38026598 0 3.90432869 0 0 Z " fill="#5F9AC8" transform="translate(93,94)"/>
<path d="M0 0 C0.99 0.495 0.99 0.495 2 1 C2.4140625 3.06640625 2.4140625 3.06640625 2.625 5.5625 C2.69976562 6.38878906 2.77453125 7.21507813 2.8515625 8.06640625 C2.92503906 9.02353516 2.92503906 9.02353516 3 10 C2.34 10 1.68 10 1 10 C-0.60725635 6.78548731 -0.05748185 3.56387464 0 0 Z " fill="#9FC8E0" transform="translate(140,96)"/>
<path d="M0 0 C1.44977894 2.34112451 2.04314411 3.5796929 1.7578125 6.359375 C1.54898438 7.14828125 1.34015625 7.9371875 1.125 8.75 C0.92132813 9.54921875 0.71765625 10.3484375 0.5078125 11.171875 C0.34023437 11.77515625 0.17265625 12.3784375 0 13 C-0.66 12.67 -1.32 12.34 -2 12 C-2.26252625 7.66831683 -1.29243536 4.1196377 0 0 Z " fill="#A4C4E3" transform="translate(115,97)"/>
<path d="M0 0 C0.99 0.33 1.98 0.66 3 1 C3.33 2.65 3.66 4.3 4 6 C3.34 6 2.68 6 2 6 C1.67 5.34 1.34 4.68 1 4 C0.01 5.32 -0.98 6.64 -2 8 C-1.125 2.25 -1.125 2.25 0 0 Z " fill="#588FBF" transform="translate(76,105)"/>
<path d="M0 0 C0.66 0 1.32 0 2 0 C1.71848913 1.31471568 1.42446661 2.62675767 1.125 3.9375 C0.96257812 4.66839844 0.80015625 5.39929688 0.6328125 6.15234375 C0 8 0 8 -2 9 C-1.125 1.125 -1.125 1.125 0 0 Z " fill="#6C96C8" transform="translate(106,140)"/>
</svg>
