<?xml version="1.0" encoding="UTF-8"?>
<svg version="1.1" xmlns="http://www.w3.org/2000/svg" width="123" height="136">
<path d="M0 0 C4.83978302 2.77561055 8.56174784 7.08407017 11.8125 11.5625 C11.8125 12.2225 11.8125 12.8825 11.8125 13.5625 C12.534375 12.840625 13.25625 12.11875 14 11.375 C15.3921875 9.9828125 15.3921875 9.9828125 16.8125 8.5625 C17.575625 7.7375 18.33875 6.9125 19.125 6.0625 C24.35355552 1.19872742 28.41257848 -1.73577003 35.75 -2.0625 C43.49204994 -1.70126942 48.93572436 1.26280839 54.1875 6.875 C58.51363305 12.43888778 60.44727916 18.27848037 60.15625 25.3359375 C59.03367052 32.60719096 54.39258987 38.0347955 48.8125 42.5625 C44.95078591 44.78840097 42.30233724 45.15133111 37.8125 44.5625 C35.37564356 43.10944202 33.15887337 41.52653314 30.92578125 39.77734375 C28.92710481 38.36396176 28.92710481 38.36396176 26.80859375 38.71875 C22.50141763 40.53939588 19.35476751 42.55540217 16.8125 46.5625 C15.80977357 51.82816878 16.35416594 57.25982957 16.8125 62.5625 C20.46566671 61.31273244 21.59315836 60.89151247 23.8125 57.5625 C24.34608075 54.47535423 24.70005939 51.38977131 25.0546875 48.27734375 C25.8125 45.5625 25.8125 45.5625 27.7265625 44.18359375 C30.52870747 43.34924721 32.05554739 43.59756659 34.8125 44.5625 C37.1875 45.9375 37.1875 45.9375 38.8125 48.5625 C39.42133398 55.98788692 37.56196254 61.89420411 32.8125 67.5625 C27.33560765 73.30019675 19.65159245 76.60058264 11.6875 77.0625 C4.36935831 76.11822365 -3.78418306 72.58376338 -8.62890625 66.859375 C-12.96281195 60.98205559 -14.03546883 55.847866 -13.1875 48.5625 C-11.05354612 45.19741888 -9.8116963 44.7065453 -5.9375 43.8125 C-5.03 43.73 -4.1225 43.6475 -3.1875 43.5625 C-0.52201076 46.61685371 0.14567325 48.53671487 0.25 52.5625 C0.50173192 55.98101942 0.60324934 57.26666286 2.625 60.125 C4.77510282 61.53792471 6.33653917 62.01747718 8.8125 62.5625 C8.95056967 50.69968486 8.95056967 50.69968486 2.796875 40.8828125 C0.38646597 39.27903642 -1.29230245 38.70428693 -4.1875 38.5625 C-6.00614131 39.73922426 -6.00614131 39.73922426 -7.5 41.5 C-10.28989571 44.07297077 -11.12884545 44.55114751 -15.0625 45.3125 C-20.32879037 44.86256451 -24.35099497 42.0336236 -28.1875 38.5625 C-33.14362881 32.31142068 -35.03131063 26.49921155 -34.1875 18.5625 C-32.3388929 10.82660914 -28.71692741 6.01438232 -22.1875 1.5625 C-15.45044814 -2.37803977 -7.26373604 -3.11711507 0 0 Z M-19.1875 13.5625 C-22.13727919 17.56205355 -23.35350579 20.31745657 -22.6875 25.3125 C-20.85433665 29.28435392 -19.14842543 31.55040946 -15.25 33.5625 C-11.9489317 33.5625 -10.51478835 31.77044023 -8.1875 29.5625 C-6.42426495 27.43646815 -6.42426495 27.43646815 -5.1875 25.5625 C2.44921044 25.93502246 6.78822199 31.33725087 11.8125 36.5625 C16.46853449 35.29267241 18.96382958 32.6361933 22.1640625 29.21875 C23.8125 27.5625 23.8125 27.5625 26.8125 25.5625 C29.94819303 25.5625 32.00410814 25.78961889 34.32421875 28.0078125 C35.06091797 28.83925781 35.06091797 28.83925781 35.8125 29.6875 C38.26340131 32.3648178 38.26340131 32.3648178 42 32.8125 C44.99318354 31.76154543 44.99318354 31.76154543 46.6875 29 C47.97775493 25.05755437 48.67358165 21.63306781 47.8125 17.5625 C46.084011 14.23355822 44.21686053 11.26468027 40.8125 9.5625 C36.24596484 9.06947585 32.19629547 8.79014904 28.125 11.0625 C25.52916792 13.86880495 23.0021049 16.72004238 20.55859375 19.66015625 C17.64062396 22.83924191 15.88125122 24.48183953 11.5 24.8125 C6.0560005 22.96707644 3.95306079 19.18783087 0.8125 14.5625 C-1.44672129 11.15865405 -1.44672129 11.15865405 -5.1875 9.5625 C-11.22399046 9.0677057 -14.50960651 9.30986955 -19.1875 13.5625 Z " fill="#8E4190" transform="translate(48.1875,35.4375)"/>
<path d="M0 0 C2.13227356 3.19841035 2.23065468 4.24559096 2.375 7.9375 C2.65898513 11.35528596 2.79335477 12.7078464 4.8125 15.5625 C6.96260282 16.97542471 8.52403917 17.45497718 11 18 C10.8590651 15.56212615 10.71245458 13.12482147 10.5625 10.6875 C10.52318359 9.99720703 10.48386719 9.30691406 10.44335938 8.59570312 C10.25072585 5.52838465 9.97677283 2.93031848 9 0 C9.66 0 10.32 0 11 0 C12.52106634 3.04213267 12.37429338 6.28047572 12.5625 9.625 C12.60568359 10.33140625 12.64886719 11.0378125 12.69335938 11.765625 C12.79944751 13.51018537 12.90022889 15.25506697 13 17 C14.32 17.33 15.64 17.66 17 18 C17 12.72 17 7.44 17 2 C17.33 2 17.66 2 18 2 C18.495 9.92 18.495 9.92 19 18 C24.06008639 16.52360997 24.06008639 16.52360997 26 13 C26.53358075 9.91285423 26.88755939 6.82727131 27.2421875 3.71484375 C28 1 28 1 29.9140625 -0.37890625 C32.71620747 -1.21325279 34.24304739 -0.96493341 37 0 C39.375 1.375 39.375 1.375 41 4 C41.60883398 11.42538692 39.74946254 17.33170411 35 23 C29.52310765 28.73769675 21.83909245 32.03808264 13.875 32.5 C6.55685831 31.55572365 -1.59668306 28.02126338 -6.44140625 22.296875 C-10.75851194 16.44233851 -11.89330959 11.26558463 -11 4 C-7.7747626 -0.40782445 -5.22294815 -1.56688445 0 0 Z " fill="#923C97" transform="translate(46,80)"/>
<path d="M0 0 C5.93063986 2.01417957 9.9765474 6.74877539 14.3125 11.125 C18.96853449 9.85517241 21.46382958 7.1986933 24.6640625 3.78125 C26.3125 2.125 26.3125 2.125 29.3125 0.125 C32.42943473 0.125 34.49234956 0.35995011 36.82421875 2.53515625 C37.56091797 3.35306641 37.56091797 3.35306641 38.3125 4.1875 C40.66958614 6.80024892 40.96390129 7.08626681 44.6875 7.5 C45.55375 7.37625 46.42 7.2525 47.3125 7.125 C47.3125 7.785 47.3125 8.445 47.3125 9.125 C46.3225 9.785 45.3325 10.445 44.3125 11.125 C44.8075 13.6 44.8075 13.6 45.3125 16.125 C47.6225 16.125 49.9325 16.125 52.3125 16.125 C49.63798697 18.9210818 48.17861068 20.0012699 44.25 20.5625 C39.44744835 20.02888315 37.16034522 18.26514163 33.42578125 15.33984375 C31.42732831 13.93880617 31.42732831 13.93880617 29.30078125 14.21875 C26.81922412 15.34983302 25.17128248 16.82063245 23.1875 18.6875 C19.52175553 22.125 19.52175553 22.125 17.3125 22.125 C17.3125 27.405 17.3125 32.685 17.3125 38.125 C15.6625 37.795 14.0125 37.465 12.3125 37.125 C11.9825 31.515 11.6525 25.905 11.3125 20.125 C9.9925 19.795 8.6725 19.465 7.3125 19.125 C6.1059375 17.825625 6.1059375 17.825625 4.875 16.5 C2.59569759 13.87830555 2.59569759 13.87830555 -0.125 14 C-2.92335866 15.06578026 -2.92335866 15.06578026 -5.5 17.6875 C-7.9804018 19.91664032 -9.59717664 20.50209632 -12.9375 20.5625 C-16.6875 20.125 -16.6875 20.125 -18.6875 18.125 C-15.7175 18.455 -12.7475 18.785 -9.6875 19.125 C-9.6875 18.465 -9.6875 17.805 -9.6875 17.125 C-10.3475 17.125 -11.0075 17.125 -11.6875 17.125 C-11.3575 15.145 -11.0275 13.165 -10.6875 11.125 C-12.9975 10.135 -15.3075 9.145 -17.6875 8.125 C-17.3575 7.465 -17.0275 6.805 -16.6875 6.125 C-14.7075 6.785 -12.7275 7.445 -10.6875 8.125 C-9.924375 7.361875 -9.16125 6.59875 -8.375 5.8125 C-7.488125 4.925625 -6.60125 4.03875 -5.6875 3.125 C-5.213125 2.50625 -4.73875 1.8875 -4.25 1.25 C-2.6875 0.125 -2.6875 0.125 0 0 Z " fill="#1C95B7" transform="translate(45.6875,59.875)"/>
<path d="M0 0 C0.66 0.66 1.32 1.32 2 2 C0.35 2.33 -1.3 2.66 -3 3 C-2.34 3.66 -1.68 4.32 -1 5 C-1.66 5 -2.32 5 -3 5 C-3 6.32 -3 7.64 -3 9 C-2.01 9 -1.02 9 0 9 C0 9.66 0 10.32 0 11 C0.99 11 1.98 11 3 11 C2.67 11.66 2.34 12.32 2 13 C1.01 12.67 0.02 12.34 -1 12 C-5.56781774 11.62558871 -8.0958315 11.60762499 -12.3125 13.4375 C-15.93868819 16.89502827 -17.42148477 20.02318407 -18 25 C-17.6654251 28.42009902 -16.94286873 31.14392167 -15 34 C-12.55930087 35.39006706 -10.84685065 35.62400086 -8 36 C-8.66 38.31 -9.32 40.62 -10 43 C-9.34 43 -8.68 43 -8 43 C-8 43.66 -8 44.32 -8 45 C-17.7910146 44.65705728 -17.7910146 44.65705728 -21.875 42.4375 C-27.13875746 36.39966056 -30.41478686 30.65626545 -30.26953125 22.53515625 C-29.56317694 15.89133096 -27.10319932 10.59639743 -22.1875 6.0625 C-15.26634662 0.66807163 -8.72060127 -1.11357595 0 0 Z " fill="#814A9B" transform="translate(44,34)"/>
<path d="M0 0 C2.375 1.375 2.375 1.375 4 4 C4.43387287 9.44467921 4.0218518 14.39651885 0.4375 18.6875 C-0.366875 19.450625 -1.17125 20.21375 -2 21 C-2.66 20.34 -3.32 19.68 -4 19 C-4.33 20.32 -4.66 21.64 -5 23 C-5.99 23 -6.98 23 -8 23 C-8 23.99 -8 24.98 -8 26 C-8.99 26 -9.98 26 -11 26 C-11 26.66 -11 27.32 -11 28 C-13.70879335 29.35439668 -16.00933268 29.06501451 -19 29 C-19.2877164 25.95020617 -19.4449802 23.03888915 -19 20 C-16.6875 18.1875 -16.6875 18.1875 -14 17 C-10.25334739 13.06237723 -10.275907 8.8815164 -9.72265625 3.6796875 C-9 1 -9 1 -7.08984375 -0.375 C-4.28511979 -1.21379595 -2.76038906 -0.96613617 0 0 Z " fill="#DE2A64" transform="translate(83,80)"/>
<path d="M0 0 C5.34251865 1.8144403 9.14823531 5.71846688 12.8828125 9.87109375 C13.35460938 10.28488281 13.82640625 10.69867188 14.3125 11.125 C16.96716049 10.89456136 16.96716049 10.89456136 19.3125 10.125 C18.9375 12.0625 18.9375 12.0625 18.3125 14.125 C17.6525 14.455 16.9925 14.785 16.3125 15.125 C15.90520772 17.44656597 15.56811323 19.7818787 15.3125 22.125 C13.9925 22.125 12.6725 22.125 11.3125 22.125 C11.3125 21.465 11.3125 20.805 11.3125 20.125 C10.755625 20.063125 10.19875 20.00125 9.625 19.9375 C7.3125 19.125 7.3125 19.125 4.875 16.5 C2.59569759 13.87830555 2.59569759 13.87830555 -0.125 14 C-2.92335866 15.06578026 -2.92335866 15.06578026 -5.5 17.6875 C-7.9804018 19.91664032 -9.59717664 20.50209632 -12.9375 20.5625 C-16.6875 20.125 -16.6875 20.125 -18.6875 18.125 C-15.7175 18.455 -12.7475 18.785 -9.6875 19.125 C-9.6875 18.465 -9.6875 17.805 -9.6875 17.125 C-10.3475 17.125 -11.0075 17.125 -11.6875 17.125 C-11.3575 15.145 -11.0275 13.165 -10.6875 11.125 C-12.9975 10.135 -15.3075 9.145 -17.6875 8.125 C-17.3575 7.465 -17.0275 6.805 -16.6875 6.125 C-14.7075 6.785 -12.7275 7.445 -10.6875 8.125 C-9.924375 7.361875 -9.16125 6.59875 -8.375 5.8125 C-7.488125 4.925625 -6.60125 4.03875 -5.6875 3.125 C-5.213125 2.50625 -4.73875 1.8875 -4.25 1.25 C-2.6875 0.125 -2.6875 0.125 0 0 Z " fill="#0EA1C2" transform="translate(45.6875,59.875)"/>
<path d="M0 0 C3.97697791 1.27831433 5.25108607 3.68124732 7.16796875 7.1484375 C9.55277438 12.45546975 10.10663413 18.63198307 8.28125 24.1875 C6.2415932 28.52999513 3.87959396 32.09030453 0 35 C-2.82676225 35.82787642 -4.99476429 35.95073384 -8 36 C-8.66 35.34 -9.32 34.68 -10 34 C-9.625 31.375 -9.625 31.375 -9 29 C-8.01 28.67 -7.02 28.34 -6 28 C-5.7834375 26.576875 -5.7834375 26.576875 -5.5625 25.125 C-5 22 -5 22 -4 20 C-3.93003986 18.29297265 -3.91559846 16.58331997 -3.9375 14.875 C-3.94652344 13.96492188 -3.95554687 13.05484375 -3.96484375 12.1171875 C-3.97644531 11.41851562 -3.98804687 10.71984375 -4 10 C-3.34 10.33 -2.68 10.66 -2 11 C-1.67 9.68 -1.34 8.36 -1 7 C-0.01 7.33 0.98 7.66 2 8 C2 6.68 2 5.36 2 4 C1.34 4 0.68 4 0 4 C0 2.68 0 1.36 0 0 Z " fill="#C43C74" transform="translate(99,41)"/>
<path d="M0 0 C5.43420434 0.03114157 7.94496379 1.86428612 11.74609375 5.578125 C16.4375 10.90877598 16.4375 10.90877598 16.4375 13.5 C18.4175 12.51 20.3975 11.52 22.4375 10.5 C22.7675 12.48 23.0975 14.46 23.4375 16.5 C24.0975 16.5 24.7575 16.5 25.4375 16.5 C25.4375 17.16 25.4375 17.82 25.4375 18.5 C24.4475 18.83 23.4575 19.16 22.4375 19.5 C22.4375 20.16 22.4375 20.82 22.4375 21.5 C18.94625983 23.82749345 17.54527749 24.00299316 13.4375 23.5 C11.0625 21.625 11.0625 21.625 9.4375 19.5 C9.4375 18.84 9.4375 18.18 9.4375 17.5 C8.4475 17.5 7.4575 17.5 6.4375 17.5 C4.32979241 14.61165997 3.4375 13.11537605 3.4375 9.5 C2.4475 9.5 1.4575 9.5 0.4375 9.5 C0.4375 8.84 0.4375 8.18 0.4375 7.5 C-0.5525 7.5 -1.5425 7.5 -2.5625 7.5 C-2.5625 5.85 -2.5625 4.2 -2.5625 2.5 C-3.5525 2.17 -4.5425 1.84 -5.5625 1.5 C-3.94687455 -0.11562545 -2.23259006 0.13634138 0 0 Z " fill="#7B579E" transform="translate(43.5625,35.5)"/>
<path d="M0 0 C-0.04382812 0.72445312 -0.08765625 1.44890625 -0.1328125 2.1953125 C-0.12428435 5.39336849 0.04635841 7.93742415 1 11 C4.02223554 13.72361601 7.27762531 15.39890599 11 17 C10.125 22.875 10.125 22.875 9 24 C7.00041636 24.04080783 4.99954746 24.04254356 3 24 C3 23.34 3 22.68 3 22 C2.154375 21.87625 1.30875 21.7525 0.4375 21.625 C-4.78582396 19.15579231 -7.3783447 15.06146167 -10 10 C-10.51133918 5.97320392 -10.26834725 3.80504174 -9 0 C-5.49455572 -2.62908321 -3.78975483 -1.67527242 0 0 Z " fill="#E62657" transform="translate(46,84)"/>
<path d="M0 0 C0.66 0.66 1.32 1.32 2 2 C0.35 2.33 -1.3 2.66 -3 3 C-2.34 3.66 -1.68 4.32 -1 5 C-1.66 5 -2.32 5 -3 5 C-3 6.32 -3 7.64 -3 9 C-2.01 9 -1.02 9 0 9 C0 9.66 0 10.32 0 11 C0.99 11 1.98 11 3 11 C2.67 11.66 2.34 12.32 2 13 C1.01 12.67 0.02 12.34 -1 12 C-5.56781774 11.62558871 -8.0958315 11.60762499 -12.3125 13.4375 C-15.89514451 16.85350988 -17.31891294 20.10930257 -18 25 C-17.66963293 27.62378481 -17.00238998 29.52040374 -16 32 C-19.57983659 28.65881918 -21.89716734 26.26231859 -22.125 21.25 C-22.08375 20.5075 -22.0425 19.765 -22 19 C-20.68 19 -19.36 19 -18 19 C-18.01160156 18.40832031 -18.02320313 17.81664063 -18.03515625 17.20703125 C-18.04417969 16.41683594 -18.05320312 15.62664063 -18.0625 14.8125 C-18.07410156 14.03519531 -18.08570313 13.25789063 -18.09765625 12.45703125 C-18 10 -18 10 -17 5 C-19.64 7.31 -22.28 9.62 -25 12 C-25 9 -25 9 -23.71484375 7.5 C-16.39527592 1.32260649 -9.66145505 -1.23371814 0 0 Z " fill="#7A4A97" transform="translate(44,34)"/>
<path d="M0 0 C3.28325318 1.03004021 3.98972232 1.62244761 6.1875 4.0625 C8.54458614 6.67524892 8.83890129 6.96126681 12.5625 7.375 C13.861875 7.189375 13.861875 7.189375 15.1875 7 C15.1875 7.66 15.1875 8.32 15.1875 9 C14.1975 9.66 13.2075 10.32 12.1875 11 C12.5175 12.65 12.8475 14.3 13.1875 16 C15.4975 16 17.8075 16 20.1875 16 C17.31702906 19.00094689 16.0469398 19.95312147 11.75 20.1875 C8.1875 20 8.1875 20 5.1875 18 C4.5 15.375 4.5 15.375 4.1875 13 C4.8475 13 5.5075 13 6.1875 13 C5.43599977 9.72226496 5.43599977 9.72226496 2.1875 8 C1.0625 6 1.0625 6 0.1875 4 C-0.1425 3.34 -0.4725 2.68 -0.8125 2 C-4.55531699 4.38179263 -7.78977468 6.74475735 -10.8125 10 C-11.4725 9.67 -12.1325 9.34 -12.8125 9 C-11.71152432 7.87187697 -10.60658444 6.74762189 -9.5 5.625 C-8.88511719 4.99851562 -8.27023438 4.37203125 -7.63671875 3.7265625 C-5.07606976 1.30299322 -3.60135153 0 0 0 Z " fill="#A074A0" transform="translate(77.8125,60)"/>
<path d="M0 0 C0.66 0.33 1.32 0.66 2 1 C1.67 1.66 1.34 2.32 1 3 C0.34 3 -0.32 3 -1 3 C-0.67 4.32 -0.34 5.64 0 7 C0.66 7 1.32 7 2 7 C2.33 6.01 2.66 5.02 3 4 C3.66 4.33 4.32 4.66 5 5 C8.61480975 4.64408027 12.19455208 4.17329067 15.79101562 3.671875 C21.69625464 2.89875155 21.69625464 2.89875155 25 4 C26.1875 7.5625 26.1875 7.5625 27 11 C26.21625 10.175 25.4325 9.35 24.625 8.5 C21.03377424 5.51442039 17.88634024 5.26189766 13.3125 5.52734375 C9.62535489 6.28096632 8.32098059 8.08389618 6 11 C-1.53523555 19.45381665 -1.53523555 19.45381665 -6.6875 21.375 C-11.32252331 20.85028038 -12.79509541 19.35751909 -16 16 C-16.33 15.01 -16.66 14.02 -17 13 C-16.34 13 -15.68 13 -15 13 C-14.2265625 14.2684375 -14.2265625 14.2684375 -13.4375 15.5625 C-11.30699604 18.23910648 -11.30699604 18.23910648 -8.73828125 18.109375 C-6.46044687 17.83760826 -4.24187126 17.48382264 -2 17 C-2.33 16.01 -2.66 15.02 -3 14 C-2.34 13.67 -1.68 13.34 -1 13 C-0.34 13.33 0.32 13.66 1 14 C1 13.34 1 12.68 1 12 C0.34 12 -0.32 12 -1 12 C-1.66 10.35 -2.32 8.7 -3 7 C-3.99 7.495 -3.99 7.495 -5 8 C-3.62845496 5.04590299 -2.01136276 2.55991624 0 0 Z " fill="#704797" transform="translate(68,40)"/>
<path d="M0 0 C0 3 0 3 -2 6 C-1.67 6.66 -1.34 7.32 -1 8 C-3.47787595 8.52777863 -5.9569664 9.04750254 -8.4375 9.5625 C-9.49807617 9.78969727 -9.49807617 9.78969727 -10.58007812 10.02148438 C-12.37826249 10.39144575 -14.18873594 10.7005656 -16 11 C-16.33 10.67 -16.66 10.34 -17 10 C-17.33 10.66 -17.66 11.32 -18 12 C-18.66 12 -19.32 12 -20 12 C-20.33 10.68 -20.66 9.36 -21 8 C-20.34 8 -19.68 8 -19 8 C-18.731875 7.21625 -18.46375 6.4325 -18.1875 5.625 C-17 3 -17 3 -14 1 C-9.29238604 -0.09479394 -4.80245159 -0.08280089 0 0 Z " fill="#803A8D" transform="translate(88,35)"/>
<path d="M0 0 C3.36126028 1.05039384 4.26452805 1.94863165 6 4.9375 C4.7625 4.73125 3.525 4.525 2.25 4.3125 C-1.11909835 3.87642876 -3.12841921 3.90346361 -6 5.9375 C-6 6.9275 -6 7.9175 -6 8.9375 C-6.97850195 9.95854551 -7.97980427 10.9581121 -9 11.9375 C-9.33 12.9275 -9.66 13.9175 -10 14.9375 C-8.68 14.9375 -7.36 14.9375 -6 14.9375 C-6 13.6175 -6 12.2975 -6 10.9375 C-2.66265179 9.8250506 -0.33742814 9.76940015 3 10.9375 C5.3125 13.5 5.3125 13.5 7 15.9375 C6.67 16.5975 6.34 17.2575 6 17.9375 C5.443125 17.256875 4.88625 16.57625 4.3125 15.875 C2.19911985 13.69642731 2.19911985 13.69642731 -0.375 13.875 C-3.23892348 14.85754917 -3.23892348 14.85754917 -5.8125 17.5 C-8.2929018 19.72914032 -9.90967664 20.31459632 -13.25 20.375 C-17 19.9375 -17 19.9375 -19 17.9375 C-16.03 18.2675 -13.06 18.5975 -10 18.9375 C-10 18.2775 -10 17.6175 -10 16.9375 C-10.66 16.9375 -11.32 16.9375 -12 16.9375 C-11.67 14.9575 -11.34 12.9775 -11 10.9375 C-13.31 9.9475 -15.62 8.9575 -18 7.9375 C-17.67 7.2775 -17.34 6.6175 -17 5.9375 C-15.02 6.5975 -13.04 7.2575 -11 7.9375 C-10.236875 7.174375 -9.47375 6.41125 -8.6875 5.625 C-7.800625 4.738125 -6.91375 3.85125 -6 2.9375 C-5.525625 2.31875 -5.05125 1.7 -4.5625 1.0625 C-3 -0.0625 -3 -0.0625 0 0 Z " fill="#5EA3C5" transform="translate(46,60.0625)"/>
<path d="M0 0 C2.475 0.99 2.475 0.99 5 2 C4.95617188 2.72445312 4.91234375 3.44890625 4.8671875 4.1953125 C4.87571565 7.39336849 5.04635841 9.93742415 6 13 C9.02223554 15.72361601 12.27762531 17.39890599 16 19 C15.125 24.875 15.125 24.875 14 26 C12.00041636 26.04080783 9.99954746 26.04254356 8 26 C8 25.34 8 24.68 8 24 C7.01 23.67 6.02 23.34 5 23 C5.99 22.67 6.98 22.34 8 22 C7.22969878 18.51190809 7.22969878 18.51190809 6 15 C5.01 14.67 4.02 14.34 3 14 C2.67 10.04 2.34 6.08 2 2 C1.01 2.33 0.02 2.66 -1 3 C-0.67 2.01 -0.34 1.02 0 0 Z " fill="#D32A5B" transform="translate(41,82)"/>
<path d="M0 0 C0.99 0.33 1.98 0.66 3 1 C3.50604984 7.98629919 3.0333905 12.20200116 -1 18 C-1.66 18 -2.32 18 -3 18 C-3 18.66 -3 19.32 -3 20 C-4.65 20.33 -6.3 20.66 -8 21 C-8.33 19.35 -8.66 17.7 -9 16 C-8.01 16 -7.02 16 -6 16 C-5.67 14.35 -5.34 12.7 -5 11 C-4.34 11 -3.68 11 -3 11 C-2.95101562 10.37351562 -2.90203125 9.74703125 -2.8515625 9.1015625 C-2.77679688 8.28429688 -2.70203125 7.46703125 -2.625 6.625 C-2.55539063 5.81289063 -2.48578125 5.00078125 -2.4140625 4.1640625 C-2 2 -2 2 0 0 Z " fill="#E22862" transform="translate(101,54)"/>
<path d="M0 0 C0 0.66 0 1.32 0 2 C-0.66 2 -1.32 2 -2 2 C-2 2.66 -2 3.32 -2 4 C-0.68 4 0.64 4 2 4 C1 7 1 7 -1 8 C-1.33 8.99 -1.66 9.98 -2 11 C-1.34 11 -0.68 11 0 11 C0 10.34 0 9.68 0 9 C3.08433792 8.0983142 5.85341821 7.86531951 9.0625 7.875 C9.91972656 7.87242188 10.77695312 7.86984375 11.66015625 7.8671875 C14 8 14 8 17 9 C16.67 9.66 16.34 10.32 16 11 C15.01 10.67 14.02 10.34 13 10 C8.43218226 9.62558871 5.9041685 9.60762499 1.6875 11.4375 C-1.89514451 14.85350988 -3.31891294 18.10930257 -4 23 C-3.66963293 25.62378481 -3.00238998 27.52040374 -2 30 C-5.57983659 26.65881918 -7.89716734 24.26231859 -8.125 19.25 C-8.08375 18.5075 -8.0425 17.765 -8 17 C-6.68 17 -5.36 17 -4 17 C-4.01160156 16.40832031 -4.02320313 15.81664062 -4.03515625 15.20703125 C-4.04417969 14.41683594 -4.05320312 13.62664063 -4.0625 12.8125 C-4.07410156 12.03519531 -4.08570313 11.25789063 -4.09765625 10.45703125 C-4 8 -4 8 -3 3 C-5.64 5.31 -8.28 7.62 -11 10 C-11 7 -11 7 -9.5390625 5.4296875 C-8.90742188 4.91664062 -8.27578125 4.40359375 -7.625 3.875 C-6.99851562 3.35679688 -6.37203125 2.83859375 -5.7265625 2.3046875 C-3.70000512 0.77330704 -2.56749236 0 0 0 Z " fill="#AA84BF" transform="translate(30,36)"/>
<path d="M0 0 C0.33 0 0.66 0 1 0 C1 3.96 1 7.92 1 12 C0.01 12.33 -0.98 12.66 -2 13 C-2.144375 13.804375 -2.28875 14.60875 -2.4375 15.4375 C-3 18 -3 18 -4 19 C-2.68 19.33 -1.36 19.66 0 20 C0 20.66 0 21.32 0 22 C-0.99 22 -1.98 22 -3 22 C-3 22.66 -3 23.32 -3 24 C-5.70879335 25.35439668 -8.00933268 25.06501451 -11 25 C-11 22.03 -11 19.06 -11 16 C-3.25 12 -3.25 12 -1 12 C-1.01160156 11.21753906 -1.02320312 10.43507813 -1.03515625 9.62890625 C-1.04417969 8.61699219 -1.05320312 7.60507813 -1.0625 6.5625 C-1.07410156 5.55316406 -1.08570312 4.54382813 -1.09765625 3.50390625 C-1 1 -1 1 0 0 Z " fill="#CA386D" transform="translate(75,84)"/>
<path d="M0 0 C0.66 0.2475 1.32 0.495 2 0.75 C2.721875 0.87375 3.44375 0.9975 4.1875 1.125 C5.0846875 1.434375 5.0846875 1.434375 6 1.75 C6.33 2.74 6.66 3.73 7 4.75 C6.01 4.75 5.02 4.75 4 4.75 C5.98 5.41 7.96 6.07 10 6.75 C10 7.41 10 8.07 10 8.75 C7.50935112 9.43707555 5.62113708 9.75 3 9.75 C3 9.09 3 8.43 3 7.75 C0.03 7.75 -2.94 7.75 -6 7.75 C-6 9.07 -6 10.39 -6 11.75 C-7.32 11.75 -8.64 11.75 -10 11.75 C-9.67 10.1 -9.34 8.45 -9 6.75 C-8.01 6.42 -7.02 6.09 -6 5.75 C-6 4.76 -6 3.77 -6 2.75 C-2.88888889 -0.36111111 -2.88888889 -0.36111111 0 0 Z " fill="#128BBD" transform="translate(46,63.25)"/>
<path d="M0 0 C4.455 0.99 4.455 0.99 9 2 C8.34 4.31 7.68 6.62 7 9 C7.66 9 8.32 9 9 9 C9 9.66 9 10.32 9 11 C5.37 10.67 1.74 10.34 -2 10 C-2.33 8.35 -2.66 6.7 -3 5 C-2.01 4.67 -1.02 4.34 0 4 C0 2.68 0 1.36 0 0 Z " fill="#6E4E91" transform="translate(27,68)"/>
<path d="M0 0 C2.13233167 3.1984975 2.20521776 4.13667179 2.3125 7.8125 C2.71605486 13.11303787 4.23840798 15.33485906 8 19 C2.25 17.25 2.25 17.25 0 15 C-0.1953125 12.3984375 -0.1953125 12.3984375 -0.125 9.375 C-0.10695313 8.37210938 -0.08890625 7.36921875 -0.0703125 6.3359375 C-0.04710937 5.56507812 -0.02390625 4.79421875 0 4 C-3.67568464 3.08107884 -5.16380575 3.04095144 -9 4 C-9.33 7.3 -9.66 10.6 -10 14 C-10.33 14 -10.66 14 -11 14 C-11.62805304 4.85833915 -11.62805304 4.85833915 -9.125 1.4375 C-5.58924136 -0.95433673 -4.13708382 -1.24112514 0 0 Z " fill="#DD849E" transform="translate(46,80)"/>
<path d="M0 0 C3.84416043 0.01103059 5.98538033 0.36888403 8.9375 2.875 C9.72125 3.7 10.505 4.525 11.3125 5.375 C9.9925 6.695 8.6725 8.015 7.3125 9.375 C4.8125 8 4.8125 8 2.3125 6.375 C2.3125 5.715 2.3125 5.055 2.3125 4.375 C1.6525 4.375 0.9925 4.375 0.3125 4.375 C0.9725 5.695 1.6325 7.015 2.3125 8.375 C0.6625 8.045 -0.9875 7.715 -2.6875 7.375 C-2.6875 5.725 -2.6875 4.075 -2.6875 2.375 C-3.6775 2.045 -4.6675 1.715 -5.6875 1.375 C-4.05531064 -0.25718936 -2.24806873 0.08736889 0 0 Z " fill="#704395" transform="translate(43.6875,35.625)"/>
<path d="M0 0 C1.65 0 3.3 0 5 0 C5 5.28 5 10.56 5 16 C3.35 15.67 1.7 15.34 0 15 C0 10.05 0 5.1 0 0 Z " fill="#577FAB" transform="translate(58,82)"/>
<path d="M0 0 C1.98 0 3.96 0 6 0 C6.33 1.65 6.66 3.3 7 5 C7.66 5 8.32 5 9 5 C9.66 7.31 10.32 9.62 11 12 C9.35 10.68 7.7 9.36 6 8 C6 9.65 6 11.3 6 13 C2.67148787 10.01581671 0.6794271 7.15437231 -1 3 C-0.67 2.01 -0.34 1.02 0 0 Z " fill="#9E4080" transform="translate(92,40)"/>
<path d="M0 0 C2.375 1.375 2.375 1.375 4 4 C4.13303605 7.74718214 3.82465478 11.34132034 3 15 C2.34 15.66 1.68 16.32 1 17 C1 12.05 1 7.1 1 2 C-1.31 2 -3.62 2 -6 2 C-6 2.66 -6 3.32 -6 4 C-6.99 4.495 -6.99 4.495 -8 5 C-8.4683265 7.58605332 -8.4683265 7.58605332 -8.625 10.5625 C-8.73714844 12.08037109 -8.73714844 12.08037109 -8.8515625 13.62890625 C-8.90054688 14.41136719 -8.94953125 15.19382812 -9 16 C-10.65 16.66 -12.3 17.32 -14 18 C-13.52433594 17.30261719 -13.04867187 16.60523437 -12.55859375 15.88671875 C-10.40223288 11.89285739 -10.20133189 8.10666851 -9.72265625 3.64453125 C-9 1 -9 1 -7.08984375 -0.37109375 C-4.28462605 -1.21528076 -2.76207016 -0.96672456 0 0 Z " fill="#DE95AC" transform="translate(83,80)"/>
<path d="M0 0 C0.66 0 1.32 0 2 0 C3.98 4.62 5.96 9.24 8 14 C7.01 14.66 6.02 15.32 5 16 C3 14.6875 3 14.6875 1 13 C1 12.01 1 11.02 1 10 C0.01 10 -0.98 10 -2 10 C-1.125 2.25 -1.125 2.25 0 0 Z " fill="#82389F" transform="translate(19,57)"/>
<path d="M0 0 C3.28325318 1.03004021 3.98972232 1.62244761 6.1875 4.0625 C8.54458614 6.67524892 8.83890129 6.96126681 12.5625 7.375 C13.861875 7.189375 13.861875 7.189375 15.1875 7 C15.1875 7.66 15.1875 8.32 15.1875 9 C13.58523045 9.22245393 11.98053233 9.42746669 10.375 9.625 C9.48167969 9.74101563 8.58835937 9.85703125 7.66796875 9.9765625 C5.1875 10 5.1875 10 2.1875 8 C1.0625 6 1.0625 6 0.1875 4 C-0.1425 3.34 -0.4725 2.68 -0.8125 2 C-4.55531699 4.38179263 -7.78977468 6.74475735 -10.8125 10 C-11.4725 9.67 -12.1325 9.34 -12.8125 9 C-11.71152432 7.87187697 -10.60658444 6.74762189 -9.5 5.625 C-8.88511719 4.99851562 -8.27023438 4.37203125 -7.63671875 3.7265625 C-5.07606976 1.30299322 -3.60135153 0 0 0 Z " fill="#7BBDD5" transform="translate(77.8125,60)"/>
<path d="M0 0 C2.92990998 4.39486496 3.30981005 8.8755882 2.5625 14 C2.376875 14.66 2.19125 15.32 2 16 C2.99 16 3.98 16 5 16 C5 16.99 5 17.98 5 19 C6.32 19.66 7.64 20.32 9 21 C9 22.32 9 23.64 9 25 C5.61743279 23.60802671 4.16311318 22.1974504 2.3125 19.0625 C1.68794922 18.02802734 1.68794922 18.02802734 1.05078125 16.97265625 C-0.67653109 13.72993234 -1.13704855 11.11456351 -1.125 7.5 C-1.12757812 6.7265625 -1.13015625 5.953125 -1.1328125 5.15625 C-1 3 -1 3 0 0 Z " fill="#9F76AB" transform="translate(15,51)"/>
<path d="M0 0 C0.66 0 1.32 0 2 0 C3.52106634 3.04213267 3.37429338 6.28047572 3.5625 9.625 C3.60568359 10.33140625 3.64886719 11.0378125 3.69335938 11.765625 C3.79944751 13.51018537 3.90022889 15.25506697 4 17 C5.32 17.33 6.64 17.66 8 18 C8 12.72 8 7.44 8 2 C8.33 2 8.66 2 9 2 C9.33 7.28 9.66 12.56 10 18 C10.99 18.33 11.98 18.66 13 19 C12 20 12 20 9.05859375 20.09765625 C7.86363281 20.08605469 6.66867188 20.07445313 5.4375 20.0625 C3.64119141 20.04896484 3.64119141 20.04896484 1.80859375 20.03515625 C0.88175781 20.02355469 -0.04507813 20.01195313 -1 20 C-1 19.34 -1 18.68 -1 18 C-0.01 18 0.98 18 2 18 C1.8590651 15.56212615 1.71245458 13.12482147 1.5625 10.6875 C1.52318359 9.99720703 1.48386719 9.30691406 1.44335938 8.59570312 C1.25072585 5.52838465 0.97677283 2.93031848 0 0 Z " fill="#9F99C5" transform="translate(55,80)"/>
<path d="M0 0 C1.03125 0.165 2.0625 0.33 3.125 0.5 C2.135 0.995 2.135 0.995 1.125 1.5 C1.455 2.82 1.785 4.14 2.125 5.5 C1.2175 4.984375 0.31 4.46875 -0.625 3.9375 C-3.58332962 2.3114193 -3.58332962 2.3114193 -5.8203125 2.6875 C-8.41118364 3.71202699 -9.97556558 5.15737635 -12 7.0625 C-15.66574447 10.5 -15.66574447 10.5 -17.875 10.5 C-17.545 9.18 -17.215 7.86 -16.875 6.5 C-16.215 6.83 -15.555 7.16 -14.875 7.5 C-14.7925 6.9225 -14.71 6.345 -14.625 5.75 C-12.09858844 -1.82923467 -6.73649957 -0.86922575 0 0 Z " fill="#57A3BF" transform="translate(80.875,71.5)"/>
<path d="M0 0 C3.97697791 1.27831433 5.25108607 3.68124732 7.16796875 7.1484375 C8.72310049 10.60915321 9.15554647 13.78559243 9.1875 17.5625 C9.20167969 18.32691406 9.21585938 19.09132813 9.23046875 19.87890625 C9 22 9 22 7 25 C6.94392578 23.77023438 6.94392578 23.77023438 6.88671875 22.515625 C6.82097656 21.43796875 6.75523438 20.3603125 6.6875 19.25 C6.62949219 18.18265625 6.57148437 17.1153125 6.51171875 16.015625 C5.96075725 12.76873739 5.08192483 11.47228574 3 9 C2.3125 6.25 2.3125 6.25 2 4 C1.34 4 0.68 4 0 4 C0 2.68 0 1.36 0 0 Z " fill="#CB84AE" transform="translate(99,41)"/>
<path d="M0 0 C0.66 0.33 1.32 0.66 2 1 C2.144375 1.639375 2.28875 2.27875 2.4375 2.9375 C2.86165035 5.38210855 2.86165035 5.38210855 6 7 C6 7.66 6 8.32 6 9 C2.44706507 10.14947895 1.20023331 10.0868937 -2.3125 8.5625 C-3.199375 8.046875 -4.08625 7.53125 -5 7 C-4.60196439 4.11424181 -4.20990931 3.17810487 -1.9375 1.25 C-1.298125 0.8375 -0.65875 0.425 0 0 Z " fill="#1794C0" transform="translate(78,63)"/>
<path d="M0 0 C0.66 0 1.32 0 2 0 C3.83691257 3.78187881 4.15837626 5.94568308 3 10 C2.01 10 1.02 10 0 10 C0 9.34 0 8.68 0 8 C-1.32 7.67 -2.64 7.34 -4 7 C-4.625 5.125 -4.625 5.125 -5 3 C-4.34 2.34 -3.68 1.68 -3 1 C-2.34 1 -1.68 1 -1 1 C-0.67 0.67 -0.34 0.34 0 0 Z " fill="#633C91" transform="translate(53,42)"/>
<path d="M0 0 C0.33 0.66 0.66 1.32 1 2 C-4.94711313 10.11328016 -11.21758234 13.20713698 -21 15 C-21 14.34 -21 13.68 -21 13 C-17.7 12.34 -14.4 11.68 -11 11 C-11 10.34 -11 9.68 -11 9 C-10.01 9 -9.02 9 -8 9 C-8 8.01 -8 7.02 -8 6 C-7.01 6 -6.02 6 -5 6 C-4.67 4.35 -4.34 2.7 -4 1 C-3.34 1.66 -2.68 2.32 -2 3 C-1.34 2.01 -0.68 1.02 0 0 Z " fill="#CB769B" transform="translate(83,97)"/>
<path d="M0 0 C1.1875 3.5625 1.1875 3.5625 2 7 C1.21625 6.175 0.4325 5.35 -0.375 4.5 C-3.96131995 1.51849885 -7.10173111 1.27799044 -11.66796875 1.50390625 C-15.23946901 2.26367264 -16.78586452 4.19976984 -19 7 C-20.31175986 8.02813611 -21.6369893 9.04084432 -23 10 C-22.01 7.03 -21.02 4.06 -20 1 C-17.23001178 0.6376556 -14.45937619 0.28482483 -11.6875 -0.0625 C-10.90181641 -0.16626953 -10.11613281 -0.27003906 -9.30664062 -0.37695312 C-8.54931641 -0.47041016 -7.79199219 -0.56386719 -7.01171875 -0.66015625 C-5.96697388 -0.79369507 -5.96697388 -0.79369507 -4.90112305 -0.92993164 C-3 -1 -3 -1 0 0 Z " fill="#B08FC3" transform="translate(93,44)"/>
<path d="M0 0 C1.9375 0.6875 1.9375 0.6875 2.9375 2.6875 C3.9275 3.0175 4.9175 3.3475 5.9375 3.6875 C3.35968094 6.26531906 1.4973161 6.30879616 -2.0625 6.6875 C-2.3925 6.3575 -2.7225 6.0275 -3.0625 5.6875 C-3.3925 6.3475 -3.7225 7.0075 -4.0625 7.6875 C-4.7225 7.6875 -5.3825 7.6875 -6.0625 7.6875 C-6.3925 6.3675 -6.7225 5.0475 -7.0625 3.6875 C-6.4025 3.6875 -5.7425 3.6875 -5.0625 3.6875 C-4.7325 2.6975 -4.4025 1.7075 -4.0625 0.6875 C-2.0625 -0.3125 -2.0625 -0.3125 0 0 Z " fill="#753B91" transform="translate(74.0625,39.3125)"/>
<path d="M0 0 C2.24307531 2.08838046 3.91772627 3.84667168 5.375 6.5625 C7.44046399 9.66069598 9.61892296 10.57243414 13 12 C13 12.66 13 13.32 13 14 C16.96 14.33 20.92 14.66 25 15 C24.01 16.485 24.01 16.485 23 18 C15.45111949 17.0259509 8.93354866 13.77929986 4 8 C3.236875 7.13375 2.47375 6.2675 1.6875 5.375 C0 3 0 3 0 0 Z " fill="#DA96B6" transform="translate(36,94)"/>
<path d="M0 0 C1.2065625 0.0309375 1.2065625 0.0309375 2.4375 0.0625 C2.4375 3.0325 2.4375 6.0025 2.4375 9.0625 C0.7875 9.3925 -0.8625 9.7225 -2.5625 10.0625 C-2.75662181 8.58418779 -2.94262131 7.10480684 -3.125 5.625 C-3.22941406 4.80128906 -3.33382812 3.97757812 -3.44140625 3.12890625 C-3.48136719 2.44699219 -3.52132812 1.76507813 -3.5625 1.0625 C-2.5625 0.0625 -2.5625 0.0625 0 0 Z " fill="#EB2362" transform="translate(80.5625,83.9375)"/>
<path d="M0 0 C2 3 2 3 2 6 C2.66 6 3.32 6 4 6 C4 6.66 4 7.32 4 8 C3.01 8.33 2.02 8.66 1 9 C1 9.66 1 10.32 1 11 C-0.98 11 -2.96 11 -5 11 C-4.26023275 7.1532103 -2.81328141 2.81328141 0 0 Z " fill="#77428F" transform="translate(65,46)"/>
<path d="M0 0 C4.72932331 2.68421053 4.72932331 2.68421053 6.5 4.75 C6.995 5.1625 7.49 5.575 8 6 C10.65466049 5.76956136 10.65466049 5.76956136 13 5 C12.67 6.32 12.34 7.64 12 9 C9.36 9 6.72 9 4 9 C3.773125 8.195625 3.54625 7.39125 3.3125 6.5625 C2.879375 5.716875 2.44625 4.87125 2 4 C-0.51948778 3.26259783 -0.51948778 3.26259783 -3 3 C-3.33 2.34 -3.66 1.68 -4 1 C-2.68 1.33 -1.36 1.66 0 2 C0 1.34 0 0.68 0 0 Z " fill="#52AECC" transform="translate(52,65)"/>
<path d="M0 0 C0.66 0 1.32 0 2 0 C2.7734375 1.2684375 2.7734375 1.2684375 3.5625 2.5625 C5.69300396 5.23910648 5.69300396 5.23910648 8.26171875 5.109375 C10.53955313 4.83760826 12.75812874 4.48382264 15 4 C14.67 3.01 14.34 2.02 14 1 C14.66 0.67 15.32 0.34 16 0 C16.99 0.66 17.98 1.32 19 2 C13.3682465 7.90563817 13.3682465 7.90563817 8.375 8.25 C3.96214134 6.6156079 2.64048071 4.84069921 0 1 C0 0.67 0 0.34 0 0 Z " fill="#A28BB5" transform="translate(51,53)"/>
<path d="M0 0 C3.96 1.98 3.96 1.98 8 4 C7.125 9.875 7.125 9.875 6 11 C4.00041636 11.04080783 1.99954746 11.04254356 0 11 C0.99 10.34 1.98 9.68 3 9 C3.72382467 6.94074861 3.72382467 6.94074861 4 5 C3.34 5 2.68 5 2 5 C1.34 3.35 0.68 1.7 0 0 Z " fill="#B8386C" transform="translate(49,97)"/>
<path d="M0 0 C0.33 0 0.66 0 1 0 C1 2.97 1 5.94 1 9 C1.66 9 2.32 9 3 9 C3.69965443 10.26418246 4.38434763 11.53665402 5.0625 12.8125 C5.63677734 13.87404297 5.63677734 13.87404297 6.22265625 14.95703125 C7 17 7 17 6 20 C-0.82972973 11.34087838 -0.82972973 11.34087838 -1.5 6.0625 C-1 3 -1 3 0 0 Z " fill="#C74966" transform="translate(37,84)"/>
<path d="M0 0 C0.66 0.99 1.32 1.98 2 3 C2.99 3 3.98 3 5 3 C6.125 7.75 6.125 7.75 5 10 C1.23627305 9.09151418 -1.73177309 8.17881794 -5 6 C-4.01 5.67 -3.02 5.34 -2 5 C-0.78130071 2.49552484 -0.78130071 2.49552484 0 0 Z " fill="#9A4B9F" transform="translate(57,102)"/>
<path d="M0 0 C0.33 0.99 0.66 1.98 1 3 C0.67 3.66 0.34 4.32 0 5 C-0.99 5 -1.98 5 -3 5 C-2.67 6.32 -2.34 7.64 -2 9 C-0.35 9 1.3 9 3 9 C3 9.66 3 10.32 3 11 C-0.375 11.625 -0.375 11.625 -4 12 C-4.66 11.34 -5.32 10.68 -6 10 C-5.625 7.375 -5.625 7.375 -5 5 C-4.01 4.67 -3.02 4.34 -2 4 C-0.79117904 1.99983534 -0.79117904 1.99983534 0 0 Z " fill="#BF3C76" transform="translate(95,65)"/>
<path d="M0 0 C3.06660765 1.2947899 4.16111816 2.3434535 5.8125 5.1875 C4.595625 4.94 3.37875 4.6925 2.125 4.4375 C-1.44446088 3.96199455 -1.97296053 4.04894326 -5.1875 6.125 C-6.1775 7.1459375 -6.1775 7.1459375 -7.1875 8.1875 C-7.8475 7.8575 -8.5075 7.5275 -9.1875 7.1875 C-4.31129495 0.25360559 -4.31129495 0.25360559 0 0 Z " fill="#66B1CF" transform="translate(46.1875,59.8125)"/>
<path d="M0 0 C0.66 0.33 1.32 0.66 2 1 C1.68804688 1.47308594 1.37609375 1.94617187 1.0546875 2.43359375 C-1.40106205 6.60511534 -2.36305623 9.18946244 -1.25 14 C-0.86025448 15.34144971 -0.45274268 16.67848082 0 18 C-3.57983659 14.65881918 -5.89716734 12.26231859 -6.125 7.25 C-6.063125 6.13625 -6.063125 6.13625 -6 5 C-4.68 5 -3.36 5 -2 5 C-1.855625 4.360625 -1.71125 3.72125 -1.5625 3.0625 C-1 1 -1 1 0 0 Z " fill="#BA95C3" transform="translate(28,48)"/>
<path d="M0 0 C2.31 0 4.62 0 7 0 C8.03470409 6.89387183 8.60036129 11.86605114 5 18 C4.34 18.33 3.68 18.66 3 19 C3.875 12.125 3.875 12.125 5 11 C5.23192865 9.48530552 5.41215238 7.96245438 5.5625 6.4375 C5.64628906 5.61121094 5.73007813 4.78492187 5.81640625 3.93359375 C5.87699219 3.29550781 5.93757813 2.65742187 6 2 C3.03 1.505 3.03 1.505 0 1 C0 0.67 0 0.34 0 0 Z " fill="#C33E6C" transform="translate(77,82)"/>
<path d="M0 0 C2.31 0.33 4.62 0.66 7 1 C6.34 3.31 5.68 5.62 5 8 C5.66 8 6.32 8 7 8 C7 8.66 7 9.32 7 10 C5.68 10 4.36 10 3 10 C2.67 7.69 2.34 5.38 2 3 C1.34 3 0.68 3 0 3 C0 2.01 0 1.02 0 0 Z " fill="#566197" transform="translate(29,69)"/>
<path d="M0 0 C-0.8125 1.9375 -0.8125 1.9375 -2 4 C-2.99 4.33 -3.98 4.66 -5 5 C-5.73323796 7.01508358 -5.73323796 7.01508358 -6 9 C-3.69 9 -1.38 9 1 9 C-1 11 -1 11 -4.125 11.125 C-5.548125 11.063125 -5.548125 11.063125 -7 11 C-7 8.03 -7 5.06 -7 2 C-3 0 -3 0 0 0 Z " fill="#AE3E73" transform="translate(71,98)"/>
<path d="M0 0 C6.26846088 0.06805325 10.37769467 1.85985987 15.4375 5.4375 C15.1075 6.0975 14.7775 6.7575 14.4375 7.4375 C10.81808265 5.93510034 7.7053206 4.61604707 4.4375 2.4375 C1.46300392 2.19530685 1.46300392 2.19530685 -1.75 2.3125 C-2.83667969 2.33054688 -3.92335938 2.34859375 -5.04296875 2.3671875 C-5.87441406 2.39039063 -6.70585938 2.41359375 -7.5625 2.4375 C-4.94411579 -0.18088421 -3.65183031 0.07928623 0 0 Z " fill="#BD94BD" transform="translate(83.5625,33.5625)"/>
<path d="M0 0 C3.67420866 0.30618405 4.78135513 0.75771784 7.3125 3.5625 C8.1478125 4.7690625 8.1478125 4.7690625 9 6 C7.68 6.99 6.36 7.98 5 9 C4.71125 8.360625 4.4225 7.72125 4.125 7.0625 C3.17176549 4.84793921 3.17176549 4.84793921 1 4 C1.33 3.34 1.66 2.68 2 2 C1.34 2 0.68 2 0 2 C0 1.34 0 0.68 0 0 Z " fill="#896AAA" transform="translate(46,36)"/>
<path d="M0 0 C0.33 3.63 0.66 7.26 1 11 C-0.32 11 -1.64 11 -3 11 C-3 7.7 -3 4.4 -3 1 C-1 0 -1 0 0 0 Z " fill="#4A5C98" transform="translate(62,87)"/>
<path d="M0 0 C3.375 0.5625 3.375 0.5625 7 2 C8.4375 5.625 8.4375 5.625 9 9 C7.35 7.68 5.7 6.36 4 5 C4 6.65 4 8.3 4 10 C3.67 10 3.34 10 3 10 C2.87625 9.030625 2.7525 8.06125 2.625 7.0625 C2.41875 6.051875 2.2125 5.04125 2 4 C1.34 3.67 0.68 3.34 0 3 C0 2.01 0 1.02 0 0 Z " fill="#AF327B" transform="translate(94,43)"/>
<path d="M0 0 C2.59381229 3.89071844 2.63187808 6.36166385 3 11 C2.67 11.66 2.34 12.32 2 13 C1.01 12.67 0.02 12.34 -1 12 C-1.02712066 10.56260487 -1.04645067 9.12506137 -1.0625 7.6875 C-1.07410156 6.88699219 -1.08570313 6.08648437 -1.09765625 5.26171875 C-1 3 -1 3 0 0 Z " fill="#A985B8" transform="translate(15,51)"/>
<path d="M0 0 C0.99 0 1.98 0 3 0 C3 2.97 3 5.94 3 9 C1.68 8.67 0.36 8.34 -1 8 C-1.33 6.68 -1.66 5.36 -2 4 C-1.34 4 -0.68 4 0 4 C0 2.68 0 1.36 0 0 Z " fill="#4B6E9B" transform="translate(84,69)"/>
<path d="M0 0 C1.98 0.99 1.98 0.99 4 2 C4 2.66 4 3.32 4 4 C6.31 4 8.62 4 11 4 C10.67 5.32 10.34 6.64 10 8 C8.68 8 7.36 8 6 8 C6 7.34 6 6.68 6 6 C5.071875 5.9071875 5.071875 5.9071875 4.125 5.8125 C2 5 2 5 0.75 2.4375 C0.5025 1.633125 0.255 0.82875 0 0 Z " fill="#26A3BB" transform="translate(51,74)"/>
<path d="M0 0 C0.97066406 -0.00515625 1.94132812 -0.0103125 2.94140625 -0.015625 C5.4375 0.25 5.4375 0.25 7.4375 2.25 C1.90782059 2.96033431 -3.06233036 3.55267176 -8.5625 2.25 C-5.19898987 0.00765991 -3.93939944 -0.02098215 0 0 Z " fill="#AE94C2" transform="translate(38.5625,33.75)"/>
<path d="M0 0 C0.70125 0.01417969 1.4025 0.02835937 2.125 0.04296875 C3.176875 0.05263672 3.176875 0.05263672 4.25 0.0625 C6.125 0.23046875 6.125 0.23046875 8.125 1.23046875 C8.125 1.89046875 8.125 2.55046875 8.125 3.23046875 C5.63435112 3.9175443 3.74613708 4.23046875 1.125 4.23046875 C1.125 3.57046875 1.125 2.91046875 1.125 2.23046875 C-0.525 2.23046875 -2.175 2.23046875 -3.875 2.23046875 C-1.875 0.23046875 -1.875 0.23046875 0 0 Z " fill="#1A94B5" transform="translate(47.875,68.76953125)"/>
<path d="M0 0 C0.99 0.33 1.98 0.66 3 1 C3 4.3 3 7.6 3 11 C2.01 11.495 2.01 11.495 1 12 C1 9.03 1 6.06 1 3 C0.01 4.98 -0.98 6.96 -2 9 C-2.6875 7.3125 -2.6875 7.3125 -3 5 C-1.5625 2.25 -1.5625 2.25 0 0 Z " fill="#D72966" transform="translate(101,54)"/>
<path d="M0 0 C2.475 0.99 2.475 0.99 5 2 C5 4.64 5 7.28 5 10 C4.34 10 3.68 10 3 10 C2.67 7.36 2.34 4.72 2 2 C1.01 2.33 0.02 2.66 -1 3 C-0.67 2.01 -0.34 1.02 0 0 Z " fill="#CC335E" transform="translate(41,82)"/>
<path d="M0 0 C0.66 0 1.32 0 2 0 C2 0.66 2 1.32 2 2 C2.99 2.33 3.98 2.66 5 3 C5.12375 3.94875 5.2475 4.8975 5.375 5.875 C5.71687177 9.08667191 5.71687177 9.08667191 8 11 C7.34 11.66 6.68 12.32 6 13 C3 8.375 3 8.375 3 5 C2.01 4.67 1.02 4.34 0 4 C0 2.68 0 1.36 0 0 Z " fill="#8A66AE" transform="translate(44,40)"/>
<path d="M0 0 C0.33 0.66 0.66 1.32 1 2 C-1.31 4.64 -3.62 7.28 -6 10 C-6.33 8.68 -6.66 7.36 -7 6 C-6.34 6 -5.68 6 -5 6 C-4.67 4.68 -4.34 3.36 -4 2 C-3.34 2.33 -2.68 2.66 -2 3 C-1.34 2.01 -0.68 1.02 0 0 Z " fill="#D56F91" transform="translate(105,66)"/>
<path d="M0 0 C1.65 0 3.3 0 5 0 C5.33 1.32 5.66 2.64 6 4 C4.35 4.33 2.7 4.66 1 5 C0.67 3.35 0.34 1.7 0 0 Z " fill="#E02269" transform="translate(92,70)"/>
<path d="M0 0 C1.80411967 2.75924185 2.0127245 3.88972103 1.625 7.25 C1.41875 8.1575 1.2125 9.065 1 10 C0.01 10 -0.98 10 -2 10 C-1.125 2.25 -1.125 2.25 0 0 Z " fill="#7E3B93" transform="translate(19,57)"/>
<path d="M0 0 C0.99 0.33 1.98 0.66 3 1 C2.34 1 1.68 1 1 1 C0.5359375 2.175625 0.5359375 2.175625 0.0625 3.375 C-1 6 -1 6 -2 8 C-2.66 8 -3.32 8 -4 8 C-4.33 6.68 -4.66 5.36 -5 4 C-4.34 4 -3.68 4 -3 4 C-2.67 3.01 -2.34 2.02 -2 1 C-1.34 0.67 -0.68 0.34 0 0 Z " fill="#71448B" transform="translate(72,39)"/>
<path d="M0 0 C1 1.33333333 2 2.66666667 3 4 C3.5775 4.639375 4.155 5.27875 4.75 5.9375 C6 8 6 8 5.6875 10.75 C5.460625 11.4925 5.23375 12.235 5 13 C2.2946129 8.94191935 0 4.95110601 0 0 Z " fill="#804493" transform="translate(22,58)"/>
<path d="M0 0 C0.66 0.33 1.32 0.66 2 1 C2.10807131 2.93627769 2.1856225 4.87427756 2.25 6.8125 C2.29640625 7.89144531 2.3428125 8.97039063 2.390625 10.08203125 C2 13 2 13 -0.015625 14.88671875 C-0.67046875 15.25410156 -1.3253125 15.62148437 -2 16 C-1.67 15.21625 -1.34 14.4325 -1 13.625 C0.27410171 9.00638131 0.16923936 4.75750644 0 0 Z " fill="#EBA3BF" transform="translate(95,51)"/>
<path d="M0 0 C2.97 0.495 2.97 0.495 6 1 C5 2.5 5 2.5 3 4 C0.20126171 4.39491399 -2.13817454 4.227129 -5 4 C-5.66 3.34 -6.32 2.68 -7 2 C-4.03 2.33 -1.06 2.66 2 3 C2 2.34 2 1.68 2 1 C1.34 0.67 0.68 0.34 0 0 Z " fill="#8894BE" transform="translate(34,76)"/>
<path d="M0 0 C0 0.99 0 1.98 0 3 C-0.99 3.66 -1.98 4.32 -3 5 C-3.33 5.99 -3.66 6.98 -4 8 C-4.99 7.67 -5.98 7.34 -7 7 C-3.72340426 0 -3.72340426 0 0 0 Z " fill="#1C91AF" transform="translate(77,62)"/>
<path d="M0 0 C0.33 0.66 0.66 1.32 1 2 C-0.64169528 4.02054804 -2.30911778 6.02043058 -4 8 C-4.33 8 -4.66 8 -5 8 C-5 6.02 -5 4.04 -5 2 C-4.34 1.67 -3.68 1.34 -3 1 C-2.67 1.66 -2.34 2.32 -2 3 C-1.34 2.01 -0.68 1.02 0 0 Z " fill="#DA6F98" transform="translate(83,97)"/>
<path d="M0 0 C0.99 0.33 1.98 0.66 3 1 C2.67 2.65 2.34 4.3 2 6 C0.68 6 -0.64 6 -2 6 C-1.125 1.125 -1.125 1.125 0 0 Z " fill="#1A7BB1" transform="translate(38,69)"/>
<path d="M0 0 C2.5 1.375 2.5 1.375 5 3 C5 3.66 5 4.32 5 5 C4.01 5.33 3.02 5.66 2 6 C2 5.34 2 4.68 2 4 C1.195625 3.87625 0.39125 3.7525 -0.4375 3.625 C-1.283125 3.41875 -2.12875 3.2125 -3 3 C-3.33 2.34 -3.66 1.68 -4 1 C-2.68 1.33 -1.36 1.66 0 2 C0 1.34 0 0.68 0 0 Z " fill="#4CABC1" transform="translate(52,65)"/>
<path d="M0 0 C0.66 0.33 1.32 0.66 2 1 C1.67 1.66 1.34 2.32 1 3 C0.34 3 -0.32 3 -1 3 C-0.690625 3.928125 -0.690625 3.928125 -0.375 4.875 C-0.25125 5.57625 -0.1275 6.2775 0 7 C-0.66 7.66 -1.32 8.32 -2 9 C-2.33 8.34 -2.66 7.68 -3 7 C-3.99 7.495 -3.99 7.495 -5 8 C-3.62845496 5.04590299 -2.01136276 2.55991624 0 0 Z " fill="#A686B6" transform="translate(68,40)"/>
<path d="M0 0 C0.7425 0.0825 1.485 0.165 2.25 0.25 C2.25 0.91 2.25 1.57 2.25 2.25 C-0.88498292 4.10776765 -3.12471432 4.45140476 -6.75 4.25 C-3.42692308 0.31153846 -3.42692308 0.31153846 0 0 Z " fill="#8B639C" transform="translate(76.75,35.75)"/>
<path d="M0 0 C2.56687367 3.8503105 1.83288724 5.58569763 1 10 C0.34 10 -0.32 10 -1 10 C-1.02689216 8.52093108 -1.04634621 7.04172517 -1.0625 5.5625 C-1.07410156 4.73878906 -1.08570313 3.91507812 -1.09765625 3.06640625 C-1 1 -1 1 0 0 Z " fill="#E83160" transform="translate(39,83)"/>
<path d="M0 0 C1.98 0.99 1.98 0.99 4 2 C4 2.66 4 3.32 4 4 C5.65 4.33 7.3 4.66 9 5 C9 5.33 9 5.66 9 6 C3.52173913 6.36521739 3.52173913 6.36521739 1.125 4.6875 C0 3 0 3 0 0 Z " fill="#654A85" transform="translate(54,53)"/>
<path d="M0 0 C0.66 0 1.32 0 2 0 C2.33 0.99 2.66 1.98 3 3 C1.68 3 0.36 3 -1 3 C-0.67 2.01 -0.34 1.02 0 0 Z M-4 1 C-3.01 1.99 -2.02 2.98 -1 4 C-2.32 4.33 -3.64 4.66 -5 5 C-4.67 3.68 -4.34 2.36 -4 1 Z " fill="#684490" transform="translate(53,42)"/>
<path d="M0 0 C2.475 0.99 2.475 0.99 5 2 C5 2.66 5 3.32 5 4 C3.02 4 1.04 4 -1 4 C-0.67 2.68 -0.34 1.36 0 0 Z " fill="#6E4095" transform="translate(61,53)"/>
<path d="M0 0 C0.99 0.33 1.98 0.66 3 1 C4.1875 4.5625 4.1875 4.5625 5 8 C3.02 6.35 1.04 4.7 -1 3 C-0.67 2.01 -0.34 1.02 0 0 Z " fill="#C07BAB" transform="translate(90,43)"/>
<path d="M0 0 C1.32 0 2.64 0 4 0 C4 0.99 4 1.98 4 3 C3.34 3 2.68 3 2 3 C1.34 4.32 0.68 5.64 0 7 C-1.04449911 3.86650268 -0.93423645 3.01031744 0 0 Z " fill="#228EAF" transform="translate(62,76)"/>
<path d="M0 0 C1.32 0.99 2.64 1.98 4 3 C3.67 3.66 3.34 4.32 3 5 C2.01 5 1.02 5 0 5 C0 4.34 0 3.68 0 3 C-0.99 2.67 -1.98 2.34 -3 2 C-2.01 1.34 -1.02 0.68 0 0 Z " fill="#6B3DA1" transform="translate(53,47)"/>
</svg>
